<svg xmlns="http://www.w3.org/2000/svg" width="40" height="40" fill="none" class="inline-block flex-grow-0 flex-shrink-0 w-10 h-10 text-white"><path stroke="url(#cloud-lock_svg__a)" stroke-linecap="round" stroke-linejoin="round" stroke-width="2" d="M6.667 29.757c-1.861-1.383-3.334-3.658-3.334-7.257 0-7.334 6.111-9.167 9.167-9.167.833-1.667 3.667-5 8.333-5 5.834 0 8.334 5.833 8.334 8.333 2.5 0 7.5 1.5 7.5 7.5 0 3.327-1.538 5.27-3.334 6.342m-16.666-2.175H15c-.92 0-1.667.746-1.667 1.667v5c0 .92.746 1.666 1.667 1.666h10c.92 0 1.667-.746 1.667-1.666v-5c0-.92-.747-1.667-1.667-1.667h-1.667m-6.666 0V25a3.333 3.333 0 1 1 6.666 0v3.333m-6.666 0h6.666"></path><defs><linearGradient id="cloud-lock_svg__a" x1="3.333" x2="25.869" y1="22.5" y2="46.523" gradientUnits="userSpaceOnUse"><stop stop-color="#D1C2F4"></stop><stop offset="0.55" stop-color="#DEC2EE"></stop><stop offset="1" stop-color="#FFDC61"></stop></linearGradient></defs></svg>